<mxfile host="app.diagrams.net" modified="2024-03-25T18:08:21.820Z" agent="Mozilla/5.0 (Windows NT 10.0; Win64; x64) AppleWebKit/537.36 (KHTML, like Gecko) Chrome/122.0.0.0 Safari/537.36" etag="6t6Hvk0jSdzMz7nJq9df" version="24.1.0" type="device">
  <diagram name="Page-1" id="GHCCZwFHGZ2dIF8Eq7Bc">
    <mxGraphModel dx="1258" dy="661" grid="1" gridSize="10" guides="1" tooltips="1" connect="1" arrows="1" fold="1" page="1" pageScale="1" pageWidth="850" pageHeight="1100" math="0" shadow="0">
      <root>
        <mxCell id="0" />
        <mxCell id="1" parent="0" />
        <mxCell id="qtLm0A7_fBKDtyC4aUwC-1" value="Admin" style="swimlane;whiteSpace=wrap;html=1;" parent="1" vertex="1">
          <mxGeometry x="120" y="80" width="200" height="520" as="geometry" />
        </mxCell>
        <mxCell id="qtLm0A7_fBKDtyC4aUwC-4" value="" style="ellipse;whiteSpace=wrap;html=1;aspect=fixed;" parent="qtLm0A7_fBKDtyC4aUwC-1" vertex="1">
          <mxGeometry x="10" y="67.5" width="25" height="25" as="geometry" />
        </mxCell>
        <mxCell id="qtLm0A7_fBKDtyC4aUwC-6" value="Login" style="rounded=1;whiteSpace=wrap;html=1;" parent="qtLm0A7_fBKDtyC4aUwC-1" vertex="1">
          <mxGeometry x="60" y="60" width="110" height="40" as="geometry" />
        </mxCell>
        <mxCell id="qtLm0A7_fBKDtyC4aUwC-8" value="" style="endArrow=classic;html=1;rounded=0;exitX=1;exitY=0.5;exitDx=0;exitDy=0;entryX=0;entryY=0.5;entryDx=0;entryDy=0;" parent="qtLm0A7_fBKDtyC4aUwC-1" source="qtLm0A7_fBKDtyC4aUwC-4" target="qtLm0A7_fBKDtyC4aUwC-6" edge="1">
          <mxGeometry width="50" height="50" relative="1" as="geometry">
            <mxPoint x="280" y="260" as="sourcePoint" />
            <mxPoint x="330" y="210" as="targetPoint" />
          </mxGeometry>
        </mxCell>
        <mxCell id="qtLm0A7_fBKDtyC4aUwC-14" style="edgeStyle=orthogonalEdgeStyle;rounded=0;orthogonalLoop=1;jettySize=auto;html=1;exitX=0.5;exitY=0;exitDx=0;exitDy=0;entryX=0.5;entryY=1;entryDx=0;entryDy=0;" parent="qtLm0A7_fBKDtyC4aUwC-1" source="qtLm0A7_fBKDtyC4aUwC-10" target="qtLm0A7_fBKDtyC4aUwC-6" edge="1">
          <mxGeometry relative="1" as="geometry" />
        </mxCell>
        <mxCell id="qtLm0A7_fBKDtyC4aUwC-10" value="" style="rhombus;whiteSpace=wrap;html=1;" parent="qtLm0A7_fBKDtyC4aUwC-1" vertex="1">
          <mxGeometry x="102.5" y="130" width="25" height="30" as="geometry" />
        </mxCell>
        <mxCell id="qtLm0A7_fBKDtyC4aUwC-16" value="Wrong credentials" style="text;html=1;strokeColor=none;fillColor=none;align=center;verticalAlign=middle;whiteSpace=wrap;rounded=0;" parent="qtLm0A7_fBKDtyC4aUwC-1" vertex="1">
          <mxGeometry x="50" y="100" width="60" height="30" as="geometry" />
        </mxCell>
        <mxCell id="qtLm0A7_fBKDtyC4aUwC-21" value="View" style="rounded=1;whiteSpace=wrap;html=1;" parent="qtLm0A7_fBKDtyC4aUwC-1" vertex="1">
          <mxGeometry x="10" y="350" width="70" height="30" as="geometry" />
        </mxCell>
        <mxCell id="qtLm0A7_fBKDtyC4aUwC-23" value="Delete" style="rounded=1;whiteSpace=wrap;html=1;" parent="qtLm0A7_fBKDtyC4aUwC-1" vertex="1">
          <mxGeometry x="100" y="370" width="70" height="30" as="geometry" />
        </mxCell>
        <mxCell id="qtLm0A7_fBKDtyC4aUwC-19" value="Right credentials" style="text;html=1;strokeColor=none;fillColor=none;align=center;verticalAlign=middle;whiteSpace=wrap;rounded=0;" parent="qtLm0A7_fBKDtyC4aUwC-1" vertex="1">
          <mxGeometry x="67.5" y="170" width="60" height="30" as="geometry" />
        </mxCell>
        <mxCell id="qtLm0A7_fBKDtyC4aUwC-2" value="Car Rental Website" style="swimlane;whiteSpace=wrap;html=1;" parent="1" vertex="1">
          <mxGeometry x="320" y="80" width="200" height="520" as="geometry" />
        </mxCell>
        <mxCell id="qtLm0A7_fBKDtyC4aUwC-7" value="Check login credentials" style="rounded=1;whiteSpace=wrap;html=1;" parent="qtLm0A7_fBKDtyC4aUwC-2" vertex="1">
          <mxGeometry x="40" y="55" width="120" height="50" as="geometry" />
        </mxCell>
        <mxCell id="qtLm0A7_fBKDtyC4aUwC-15" value="Enter credential" style="text;html=1;strokeColor=none;fillColor=none;align=center;verticalAlign=middle;whiteSpace=wrap;rounded=0;" parent="qtLm0A7_fBKDtyC4aUwC-2" vertex="1">
          <mxGeometry x="-30" y="50" width="60" height="30" as="geometry" />
        </mxCell>
        <mxCell id="qtLm0A7_fBKDtyC4aUwC-27" style="edgeStyle=orthogonalEdgeStyle;rounded=0;orthogonalLoop=1;jettySize=auto;html=1;exitX=0.5;exitY=1;exitDx=0;exitDy=0;entryX=0.5;entryY=0;entryDx=0;entryDy=0;" parent="qtLm0A7_fBKDtyC4aUwC-2" source="qtLm0A7_fBKDtyC4aUwC-17" target="qtLm0A7_fBKDtyC4aUwC-26" edge="1">
          <mxGeometry relative="1" as="geometry" />
        </mxCell>
        <mxCell id="qtLm0A7_fBKDtyC4aUwC-32" style="edgeStyle=orthogonalEdgeStyle;rounded=0;orthogonalLoop=1;jettySize=auto;html=1;exitX=0.75;exitY=1;exitDx=0;exitDy=0;entryX=0.5;entryY=0;entryDx=0;entryDy=0;" parent="qtLm0A7_fBKDtyC4aUwC-2" source="qtLm0A7_fBKDtyC4aUwC-17" target="qtLm0A7_fBKDtyC4aUwC-30" edge="1">
          <mxGeometry relative="1" as="geometry" />
        </mxCell>
        <mxCell id="qtLm0A7_fBKDtyC4aUwC-17" value="" style="rounded=0;whiteSpace=wrap;html=1;" parent="qtLm0A7_fBKDtyC4aUwC-2" vertex="1">
          <mxGeometry x="40" y="290" width="110" height="20" as="geometry" />
        </mxCell>
        <mxCell id="qtLm0A7_fBKDtyC4aUwC-26" value="Button" style="rounded=1;whiteSpace=wrap;html=1;" parent="qtLm0A7_fBKDtyC4aUwC-2" vertex="1">
          <mxGeometry x="20" y="370" width="70" height="30" as="geometry" />
        </mxCell>
        <mxCell id="qtLm0A7_fBKDtyC4aUwC-34" style="edgeStyle=orthogonalEdgeStyle;rounded=0;orthogonalLoop=1;jettySize=auto;html=1;exitX=0.5;exitY=1;exitDx=0;exitDy=0;entryX=0.5;entryY=0;entryDx=0;entryDy=0;" parent="qtLm0A7_fBKDtyC4aUwC-2" source="qtLm0A7_fBKDtyC4aUwC-30" target="qtLm0A7_fBKDtyC4aUwC-33" edge="1">
          <mxGeometry relative="1" as="geometry" />
        </mxCell>
        <mxCell id="qtLm0A7_fBKDtyC4aUwC-30" value="User forms" style="rounded=1;whiteSpace=wrap;html=1;" parent="qtLm0A7_fBKDtyC4aUwC-2" vertex="1">
          <mxGeometry x="95" y="410" width="70" height="30" as="geometry" />
        </mxCell>
        <mxCell id="qtLm0A7_fBKDtyC4aUwC-35" style="edgeStyle=orthogonalEdgeStyle;rounded=0;orthogonalLoop=1;jettySize=auto;html=1;exitX=0;exitY=0.5;exitDx=0;exitDy=0;entryX=0;entryY=0.5;entryDx=0;entryDy=0;" parent="qtLm0A7_fBKDtyC4aUwC-2" source="qtLm0A7_fBKDtyC4aUwC-33" target="qtLm0A7_fBKDtyC4aUwC-30" edge="1">
          <mxGeometry relative="1" as="geometry" />
        </mxCell>
        <mxCell id="qtLm0A7_fBKDtyC4aUwC-33" value="" style="rhombus;whiteSpace=wrap;html=1;" parent="qtLm0A7_fBKDtyC4aUwC-2" vertex="1">
          <mxGeometry x="117.5" y="460" width="25" height="30" as="geometry" />
        </mxCell>
        <mxCell id="qtLm0A7_fBKDtyC4aUwC-36" value="Form filled improperly" style="text;html=1;strokeColor=none;fillColor=none;align=center;verticalAlign=middle;whiteSpace=wrap;rounded=0;" parent="qtLm0A7_fBKDtyC4aUwC-2" vertex="1">
          <mxGeometry x="10" y="440" width="60" height="30" as="geometry" />
        </mxCell>
        <mxCell id="qtLm0A7_fBKDtyC4aUwC-47" style="edgeStyle=orthogonalEdgeStyle;rounded=0;orthogonalLoop=1;jettySize=auto;html=1;exitX=0.5;exitY=1;exitDx=0;exitDy=0;entryX=0.5;entryY=0;entryDx=0;entryDy=0;" parent="qtLm0A7_fBKDtyC4aUwC-2" source="qtLm0A7_fBKDtyC4aUwC-44" target="qtLm0A7_fBKDtyC4aUwC-17" edge="1">
          <mxGeometry relative="1" as="geometry" />
        </mxCell>
        <mxCell id="qtLm0A7_fBKDtyC4aUwC-44" value="Sidebar" style="rounded=1;whiteSpace=wrap;html=1;" parent="qtLm0A7_fBKDtyC4aUwC-2" vertex="1">
          <mxGeometry x="60" y="220" width="70" height="30" as="geometry" />
        </mxCell>
        <mxCell id="qtLm0A7_fBKDtyC4aUwC-3" value="Database" style="swimlane;whiteSpace=wrap;html=1;" parent="1" vertex="1">
          <mxGeometry x="520" y="80" width="200" height="520" as="geometry" />
        </mxCell>
        <mxCell id="fUI45DdadHBWDLoIkKZL-5" style="edgeStyle=orthogonalEdgeStyle;rounded=0;orthogonalLoop=1;jettySize=auto;html=1;exitX=0.5;exitY=1;exitDx=0;exitDy=0;entryX=0.5;entryY=0;entryDx=0;entryDy=0;" edge="1" parent="qtLm0A7_fBKDtyC4aUwC-3" source="qtLm0A7_fBKDtyC4aUwC-38" target="fUI45DdadHBWDLoIkKZL-1">
          <mxGeometry relative="1" as="geometry" />
        </mxCell>
        <mxCell id="qtLm0A7_fBKDtyC4aUwC-38" value="Save/modify information" style="rounded=1;whiteSpace=wrap;html=1;" parent="qtLm0A7_fBKDtyC4aUwC-3" vertex="1">
          <mxGeometry x="30" y="402.5" width="120" height="45" as="geometry" />
        </mxCell>
        <mxCell id="fUI45DdadHBWDLoIkKZL-1" value="" style="ellipse;whiteSpace=wrap;html=1;aspect=fixed;" vertex="1" parent="qtLm0A7_fBKDtyC4aUwC-3">
          <mxGeometry x="77.5" y="470" width="25" height="25" as="geometry" />
        </mxCell>
        <mxCell id="fUI45DdadHBWDLoIkKZL-2" value="" style="ellipse;whiteSpace=wrap;html=1;aspect=fixed;" vertex="1" parent="qtLm0A7_fBKDtyC4aUwC-3">
          <mxGeometry x="81.5" y="474" width="17" height="17" as="geometry" />
        </mxCell>
        <mxCell id="qtLm0A7_fBKDtyC4aUwC-9" value="" style="endArrow=classic;html=1;rounded=0;exitX=1;exitY=0.5;exitDx=0;exitDy=0;entryX=0;entryY=0.5;entryDx=0;entryDy=0;" parent="1" source="qtLm0A7_fBKDtyC4aUwC-6" target="qtLm0A7_fBKDtyC4aUwC-7" edge="1">
          <mxGeometry width="50" height="50" relative="1" as="geometry">
            <mxPoint x="165" y="170" as="sourcePoint" />
            <mxPoint x="190" y="170" as="targetPoint" />
          </mxGeometry>
        </mxCell>
        <mxCell id="qtLm0A7_fBKDtyC4aUwC-13" style="edgeStyle=orthogonalEdgeStyle;rounded=0;orthogonalLoop=1;jettySize=auto;html=1;exitX=0.5;exitY=1;exitDx=0;exitDy=0;entryX=1;entryY=0.5;entryDx=0;entryDy=0;" parent="1" source="qtLm0A7_fBKDtyC4aUwC-7" target="qtLm0A7_fBKDtyC4aUwC-10" edge="1">
          <mxGeometry relative="1" as="geometry" />
        </mxCell>
        <mxCell id="qtLm0A7_fBKDtyC4aUwC-24" style="edgeStyle=orthogonalEdgeStyle;rounded=0;orthogonalLoop=1;jettySize=auto;html=1;exitX=0.25;exitY=1;exitDx=0;exitDy=0;entryX=0.5;entryY=0;entryDx=0;entryDy=0;" parent="1" source="qtLm0A7_fBKDtyC4aUwC-17" target="qtLm0A7_fBKDtyC4aUwC-21" edge="1">
          <mxGeometry relative="1" as="geometry" />
        </mxCell>
        <mxCell id="qtLm0A7_fBKDtyC4aUwC-28" style="edgeStyle=orthogonalEdgeStyle;rounded=0;orthogonalLoop=1;jettySize=auto;html=1;exitX=1;exitY=0.5;exitDx=0;exitDy=0;entryX=0;entryY=0.5;entryDx=0;entryDy=0;" parent="1" source="qtLm0A7_fBKDtyC4aUwC-23" target="qtLm0A7_fBKDtyC4aUwC-26" edge="1">
          <mxGeometry relative="1" as="geometry" />
        </mxCell>
        <mxCell id="qtLm0A7_fBKDtyC4aUwC-39" style="edgeStyle=orthogonalEdgeStyle;rounded=0;orthogonalLoop=1;jettySize=auto;html=1;exitX=1;exitY=0.5;exitDx=0;exitDy=0;entryX=0;entryY=0.5;entryDx=0;entryDy=0;" parent="1" source="qtLm0A7_fBKDtyC4aUwC-33" target="qtLm0A7_fBKDtyC4aUwC-38" edge="1">
          <mxGeometry relative="1" as="geometry" />
        </mxCell>
        <mxCell id="qtLm0A7_fBKDtyC4aUwC-46" style="edgeStyle=orthogonalEdgeStyle;rounded=0;orthogonalLoop=1;jettySize=auto;html=1;exitX=0.5;exitY=1;exitDx=0;exitDy=0;entryX=0.5;entryY=0;entryDx=0;entryDy=0;" parent="1" source="qtLm0A7_fBKDtyC4aUwC-10" target="qtLm0A7_fBKDtyC4aUwC-44" edge="1">
          <mxGeometry relative="1" as="geometry" />
        </mxCell>
      </root>
    </mxGraphModel>
  </diagram>
</mxfile>
